<svg xmlns="http://www.w3.org/2000/svg" xmlns:xlink="http://www.w3.org/1999/xlink" version="1.1" x="0px" y="0px" viewBox="0 0 100 100" enable-background="new 0 0 100 100" xml:space="preserve"><g><g><path d="M13.89,0.26c0.948,2.145,1.236,5.023,1.536,8.028c0.365,3.658,0.744,7.44,2.297,9.743    c1.808,2.681,5.14,2.694,10.425,2.496c2.468-0.094,5.265-0.199,8.106,0.131c6.85,0.795,9.342,8.508,10.203,12.794l-2.516,1.887    c-0.472-3.073-2.26-11.233-8.011-11.901c-2.627-0.305-5.195-0.208-7.676-0.115c-5.185,0.195-10.082,0.381-12.853-3.727    c-1.948-2.887-2.361-7.027-2.761-11.031c-0.337-3.363-0.684-6.84-1.996-8.278l0.029-0.025L13.89,0.26z M50.099,30.787    c1.12-0.839,12.642-7.247,20.959,4.103c2.049,2.794,4.518,6.365,7.265,10.301c-0.341,0.223-8.263,5.444-16.001,11.224    l-4.295-5.729c0.613-1.257-0.143-3.817-1.94-6.214s-4.045-3.84-5.423-3.603l-5.03-6.705    C46.591,33.436,49.192,31.466,50.099,30.787z M38.301,59.457c-8.567-11.162,0.81-20.428,1.93-21.269    c0.906-0.681,3.527-2.625,4.492-3.342l5.028,6.705c-0.614,1.258,0.143,3.818,1.941,6.215c1.797,2.398,4.044,3.841,5.423,3.603    l4.296,5.729c-7.714,5.811-14.945,11.954-15.254,12.217C43.148,65.578,40.411,62.207,38.301,59.457z M91.281,95.186l-0.872,0.655    c-8.971,6.49-22.142,3.832-26.813-3.286C58.526,84.832,52.134,76.75,46.59,69.854l0.357,0.422    c0.076-0.065,7.65-6.514,15.612-12.486c7.963-5.973,16.276-11.438,16.358-11.493l-0.023-0.036    c5.005,7.156,10.86,15.37,16.741,22.265C101.161,75.003,100.024,88.393,91.281,95.186z"></path></g><defs><filter filterUnits="userSpaceOnUse" x="10.646" y="0.26" width="88.363" height="99.278"><feColorMatrix type="matrix" values="-1 0 0 0 1  0 -1 0 0 1  0 0 -1 0 1  0 0 0 1 0" color-interpolation-filters="sRGB" result="source"></feColorMatrix></filter></defs><mask maskUnits="userSpaceOnUse" x="10.646" y="0.26" width="88.363" height="99.278" id="a"></mask><g opacity="0.25" mask="url(#a)"><path fill="#000000" d="M13.89,0.26c0.948,2.145,1.236,5.023,1.536,8.028c0.365,3.658,0.744,7.44,2.297,9.743    c1.808,2.681,5.14,2.694,10.425,2.496c2.468-0.094,5.265-0.199,8.106,0.131c6.85,0.795,9.342,8.508,10.203,12.794l-2.516,1.887    c-0.472-3.073-2.26-11.233-8.011-11.901c-2.627-0.305-5.195-0.208-7.676-0.115c-5.185,0.195-10.082,0.381-12.853-3.727    c-1.948-2.887-2.361-7.027-2.761-11.031c-0.337-3.363-0.684-6.84-1.996-8.278l0.029-0.025L13.89,0.26z M50.099,30.787    c1.12-0.839,12.642-7.247,20.959,4.103c2.049,2.794,4.518,6.365,7.265,10.301c-0.341,0.223-8.263,5.444-16.001,11.224    l-4.295-5.729c0.613-1.257-0.143-3.817-1.94-6.214s-4.045-3.84-5.423-3.603l-5.03-6.705    C46.591,33.436,49.192,31.466,50.099,30.787z M38.301,59.457c-8.567-11.162,0.81-20.428,1.93-21.269    c0.906-0.681,3.527-2.625,4.492-3.342l5.028,6.705c-0.614,1.258,0.143,3.818,1.941,6.215c1.797,2.398,4.044,3.841,5.423,3.603    l4.296,5.729c-7.714,5.811-14.945,11.954-15.254,12.217C43.148,65.578,40.411,62.207,38.301,59.457z M91.281,95.186l-0.872,0.655    c-8.971,6.49-22.142,3.832-26.813-3.286C58.526,84.832,52.134,76.75,46.59,69.854l0.357,0.422    c0.076-0.065,7.65-6.514,15.612-12.486c7.963-5.973,16.276-11.438,16.358-11.493l-0.023-0.036    c5.005,7.156,10.86,15.37,16.741,22.265C101.161,75.003,100.024,88.393,91.281,95.186z"></path></g></g><path fill="#000000" d="M8.113-5.746"></path></svg>